<svg width="1530" height="394" viewBox="0 0 1530 394" fill="none" xmlns="http://www.w3.org/2000/svg">
<rect opacity="0.9" width="1529" height="392" rx="33" fill="#728D3B"/>
<path fill-rule="evenodd" clip-rule="evenodd" d="M1529.29 320.512V359.29C1529.29 377.516 1514.52 392.29 1496.29 392.29H1336.79L1255.35 290.066C1221.63 247.732 1228.61 186.076 1270.94 152.352C1313.28 118.629 1374.93 125.608 1408.66 167.942L1522.47 310.81C1524.96 313.944 1527.24 317.185 1529.29 320.512Z" fill="#FF9C00"/>
<path d="M463.5 391.5C466.836 361.073 490.222 285.952 547.072 289.64C618.135 294.25 638.153 297.016 662.174 255.525C686.196 214.035 813.308 225.099 853.844 274.427C894.38 323.755 1017.5 389 1017.5 392" stroke="white" stroke-width="3"/>
<path d="M512 390.5C514.839 368.389 531.608 316.661 579.976 319.341C640.436 322.691 657.468 324.701 677.905 294.55C698.342 264.398 806.49 272.438 840.978 308.285C875.466 344.132 989.5 391 989.5 392" stroke="white" stroke-width="3"/>
</svg>
