<svg width="1410" height="394" viewBox="0 0 1410 394" fill="none" xmlns="http://www.w3.org/2000/svg">
<rect opacity="0.9" x="-120" width="1529" height="392" fill="#728D3B"/>
<path fill-rule="evenodd" clip-rule="evenodd" d="M1409.29 319.377V392.291H1216.79L1135.35 290.066C1101.63 247.733 1108.61 186.077 1150.94 152.353C1193.27 118.629 1254.93 125.609 1288.65 167.943L1409.29 319.377Z" fill="#FF9C00"/>
<path d="M343.5 391.5C346.836 361.073 370.222 285.952 427.072 289.64C498.135 294.25 518.153 297.016 542.174 255.525C566.196 214.035 693.308 225.099 733.844 274.427C774.38 323.755 897.5 389 897.5 392" stroke="white" stroke-width="3"/>
<path d="M392 390.5C394.839 368.389 411.608 316.661 459.976 319.341C520.436 322.691 537.468 324.701 557.905 294.55C578.342 264.398 686.49 272.438 720.978 308.285C755.466 344.132 869.5 391 869.5 392" stroke="white" stroke-width="3"/>
</svg>
